# xmcd
#
# Track frame offsets:
#	150
#	11975
#	23863
#	35000
#	47425
#	59463
#	71460
#	81853
#	95165
#	107678
#	119803
#	133903
#	144828
#	157260
#	168348
#	177535
#	191248
#	204473
#	216435
#	228685
#	246223
#	261223
#	275735
#	291923
#
# Disc length: 4195 seconds
#
# Revision: 1
# Processed by: cddbd v1.5.1PL0 Copyright (c) Steve Scherf et al.
# Submitted via: EasyCDDAExtractor 7.0.9.1
#
DISCID=84106118
DTITLE=Platters - All The Hits and More
DYEAR=1996
DGENRE=Oldies
TTITLE0=Only you (And You Alone)
TTITLE1=The Great Pretender
TTITLE2=(You've got) The Magic Touch
TTITLE3=My Prayer
TTITLE4=Heaven On Earth
TTITLE5=You'll Never Never Know
TTITLE6=One In A Million
TTITLE7=I'm Sorry
TTITLE8=Twilight Time
TTITLE9=Smoke Gets In Your Eyes
TTITLE10=Harbor Lights
TTITLE11=Red Sails In The Sunset
TTITLE12=I Love You 1.000 Times
TTITLE13=Don't Hear, Speak, See No Evil
TTITLE14=Devri
TTITLE15=Alone In The Night
TTITLE16=I'll Be Home
TTITLE17=What Name Shall I Give You My Love
TTITLE18=Washed Ashore (On A Lonely Island In The Sea)
TTITLE19=If I Had A Love
TTITLE20=The Wonder Of You
TTITLE21=I Get The Sweetest Feeling
TTITLE22=Delilah
TTITLE23=Unchained Melody
EXTD=
EXTT0=
EXTT1=
EXTT2=
EXTT3=
EXTT4=
EXTT5=
EXTT6=
EXTT7=
EXTT8=
EXTT9=
EXTT10=
EXTT11=
EXTT12=
EXTT13=
EXTT14=
EXTT15=
EXTT16=
EXTT17=
EXTT18=
EXTT19=
EXTT20=
EXTT21=
EXTT22=
EXTT23=
PLAYORDER=
